<?xml version="1.0" standalone="no"?>
<!DOCTYPE svg PUBLIC "-//W3C//DTD SVG 1.1//EN" "http://www.w3.org/Graphics/SVG/1.1/DTD/svg11.dtd" >
<svg>
<metadata>
Created by FontForge 20090914 at Sat Jun 10 15:44:01 2017
 By www-data
</metadata>
<defs>
<font id="Aemstel-LineOutside" horiz-adv-x="774" >
  <font-face 
    font-family="Aemstel Line Outside"
    font-weight="400"
    font-stretch="normal"
    units-per-em="1000"
    panose-1="0 0 5 0 0 0 0 0 0 0"
    ascent="800"
    descent="-200"
    x-height="730"
    cap-height="730"
    bbox="-63 -200 1069 812"
    underline-thickness="50"
    underline-position="-50"
    unicode-range="U+0020-U+20AC"
  />
<missing-glyph horiz-adv-x="500" 
d="M410 -200h-317v1000h317v-1000zM168 733v-33h65v-37h-66v-33h166v33h-66v37h66v33h-165zM167 604v-104h166v34h-66v70h-100zM233 534h-33v36h33v-36zM167 473v-33h66v-37h-66v-33h100v70h66v33h-166zM300 413v-66h-133v-34h166v100h-33zM233 291v-56h34v23h33v-47h-100
v80h-33v-113h166v113h-100zM167 118v-113h166v113h-166zM300 38h-100v47h100v-47zM167 -18v-33h70l-70 -47v-33h166v33h-102l70 47h32v33h-166z" />
    <glyph glyph-name=".notdef" horiz-adv-x="500" 
d="M410 -200h-317v1000h317v-1000zM168 733v-33h65v-37h-66v-33h166v33h-66v37h66v33h-165zM167 604v-104h166v34h-66v70h-100zM233 534h-33v36h33v-36zM167 473v-33h66v-37h-66v-33h100v70h66v33h-166zM300 413v-66h-133v-34h166v100h-33zM233 291v-56h34v23h33v-47h-100
v80h-33v-113h166v113h-100zM167 118v-113h166v113h-166zM300 38h-100v47h100v-47zM167 -18v-33h70l-70 -47v-33h166v33h-102l70 47h32v33h-166z" />
    <glyph glyph-name="space" unicode=" " horiz-adv-x="350" 
 />
    <glyph glyph-name="exclam" unicode="!" horiz-adv-x="280" 
d="M240 190h-210v540h210v-540zM62 698v-476h146v476h-146zM216 151c22.667 -22.667 34 -49.667 34 -81s-11.333 -58.333 -34 -81s-49.667 -34 -81 -34s-58.333 11.333 -81 34s-34 49.667 -34 81s11.333 58.333 34 81s49.667 34 81 34s58.333 -11.333 81 -34zM76.5 129
c-16.333 -16 -24.5 -35.667 -24.5 -59c0 -22.667 8.16699 -42.167 24.5 -58.5s35.833 -24.5 58.5 -24.5c23.333 0 43 8.16699 59 24.5s24 35.833 24 58.5c0 23.333 -8 43 -24 59s-35.667 24 -59 24c-22.667 0 -42.167 -8 -58.5 -24z" />
    <glyph glyph-name="dollar" unicode="$" horiz-adv-x="658" 
d="M434 689c44 -12 81.667 -31.3281 113 -57.9951c39.333 -33.333 64 -72 74 -116l7 -32l-200 -43l-8 28c-2.66699 8 -10.334 16.667 -23.001 26c-20.667 14.667 -43 22 -67 22c-27.333 0 -50.666 -5.33301 -69.999 -16c-8 -4.66699 -13.667 -9.33398 -17 -14.001
c4.66699 -2.66699 13 -6.33398 25 -11.001l89 -26l6 -1c36.667 -10 68.167 -19.333 94.5 -28s51.833 -20.334 76.5 -35.001c33.333 -19.333 59 -41.333 77 -66c22 -30 33 -64.333 33 -103c0 -39.333 -11 -75.666 -33 -108.999c-20 -30.667 -50.333 -57 -91 -79
c-26 -13.333 -54.667 -24 -86 -32v-102h-210v104c-40.667 9.33301 -79 25.666 -115 48.999c-23.333 16.667 -42.333 34 -57 52c-17.333 21.333 -29.666 45 -36.999 71l-8 32l196 48l10 -23c0.666992 -0.666992 3.16699 -2.66699 7.5 -6s10.833 -7 19.5 -11
c25.333 -12.667 55.333 -19 90 -19c29.333 0 52.333 5 69 15c8 4 14 9 18 15c-4.66699 2.66699 -13 6 -25 10c-17.333 6 -47 14.667 -89 26c-5.33301 1.33301 -10 2.66602 -14 3.99902c-34 8.66699 -63.333 17.167 -88 25.5s-48 19.166 -70 32.499
c-30.667 18.667 -53.334 40 -68.001 64c-19.333 28.667 -29 61.667 -29 99c0 29.333 6 56.333 18 81c10 22 26 43.333 48 64c32.667 28.667 74 49.667 124 63v104h210v-105zM256 762.005l0.00292969 -97.002h-2c-55.333 -11.333 -99.333 -32 -132 -62
c-18 -16 -31.667 -33.667 -41 -53c-10 -20.667 -15 -43.334 -15 -68.001c0 -40 11.833 -72.667 35.5 -98s51.167 -44.333 82.5 -57s69 -24.334 113 -35.001c4 -1.33301 8.66699 -2.66602 14 -3.99902c42.667 -11.333 73.167 -20.166 91.5 -26.499
s30.833 -12.166 37.5 -17.499s10 -12.333 10 -21c0 -17.333 -11.667 -32.333 -35 -45c-22.667 -12.667 -51 -19 -85 -19c-37.333 0 -72 7.33301 -104 22c-10.667 5.33301 -19.667 10.833 -27 16.5s-12 10.5 -14 14.5l-139 -34c10.667 -40.667 36 -74.167 76 -100.5
s84 -44.166 132 -53.499l2 -1v-97h146v96l2 1c39.333 7.33301 73 18.333 101 33c34.667 18.667 61.167 41.667 79.5 69s27.5 57.666 27.5 90.999c0 31.333 -9 59.333 -27 84c-16 22 -38.333 41 -67 57c-22.667 14 -47.334 25.333 -74.001 34s-56.334 17.334 -89.001 26.001
l-6 1c-44 12 -74.833 21 -92.5 27s-29.834 11.667 -36.501 17s-10 12.333 -10 21s3 17 9 25s14.667 15 26 21c24 12.667 52.333 19 85 19c32 0 60.667 -9.66699 86 -29c18.667 -14 30 -27.667 34 -41l140 30c-9.33301 38 -30.333 70.667 -63 98
c-33.333 28 -74.333 47.333 -123 58l-2 1v97h-146z" />
    <glyph glyph-name="ampersand" unicode="&#x26;" horiz-adv-x="720" 
d="M428 724c30 -10 57.666 -25.334 82.999 -46.001c25.333 -22 44.666 -46.333 57.999 -73c14.667 -28 23.667 -58.667 27 -92l3 -31l-31 -4l-184 -21l-1 35c0 13.333 -5 23 -15 29c-9.33301 6 -23 9 -41 9c-16.667 0 -31 -3 -43 -9c-9.33301 -6 -14 -12.667 -14 -20
c0 -3.33301 3 -8 9 -14l202 -176c2 9.33301 3 18.666 3 27.999l1 31h219v-32c0 -64.667 -16 -124.667 -48 -180l72 -63l-137 -169l-93 81c-28 -14.667 -57.167 -26.167 -87.5 -34.5s-59.166 -12.5 -86.499 -12.5c-44 0 -85 6 -123 18s-70.667 29.667 -98 53
c-28.667 22.667 -50.667 50.334 -66 83.001s-23 68 -23 106c0 37.333 7.66699 73 23 107c12.667 26 28.334 48 47.001 66c-18.667 36 -28 71.667 -28 107s6.66699 68 20 98c13.333 30.667 32.333 56.334 57 77.001c25.333 22 54 38.333 86 49s68 16 108 16
c36 0 69.667 -5.33301 101 -16zM201.999 681.999c-36 -17.333 -63.999 -41.667 -83.999 -73s-30 -67.666 -30 -108.999c0 -35.333 11.667 -72.666 35 -111.999l1 -1l-1 -1c-24.667 -19.333 -43.667 -43.666 -57 -72.999c-13.333 -28.667 -20 -59.667 -20 -93
c0 -44.667 11.667 -84.334 35 -119.001s56 -61.5 98 -80.5s90.333 -28.5 145 -28.5c28 0 57.333 4.66699 88 14s60 22.666 88 39.999l2 1l85 -75l96 119l-69 61l1 1c38 55.333 57 117 57 185h-156c0 -26.667 -6.66699 -53.334 -20 -80.001l-1 -2l-238 208
c-12.667 12.667 -19 24.667 -19 36c0 20.667 9.33301 36.167 28 46.5s39 15.5 61 15.5c23.333 0 42.333 -4.33301 57 -13c19.333 -12 29.666 -30.667 30.999 -56l149 17c-3.33301 38.667 -15.5 73 -36.5 103s-49 53.333 -84 70s-73.833 25 -116.5 25
c-47.333 0 -89 -8.66699 -125 -26zM226.5 164.998c-16.333 18 -24.5 36.333 -24.5 55c0 10.667 2 20.667 6 30s13.667 18 29 26h2l142 -124l-3 -1c-21.333 -8.66699 -39.333 -13 -54 -13c-48.667 0 -81.167 9 -97.5 27zM237 234.998l-0.999023 -1.99902
c-1.33301 -2.66699 -2 -7 -2 -13c0 -10 3.33301 -18.667 10 -26c13.333 -14.667 35.666 -22.334 66.999 -23.001z" />
    <glyph glyph-name="parenleft" unicode="(" horiz-adv-x="312" 
d="M334 676l-20 -24.002c-18.667 -23.333 -35.667 -53.333 -51 -90c-26 -64 -39 -134.667 -39 -212s13 -147.666 39 -210.999c8.66699 -22 17.667 -40.667 27 -56s17.333 -26.666 24 -33.999l20 -25l-161 -134l-21 25c-12 14 -25.333 33 -40 57s-28.667 52.333 -42 85
c-37.333 87.333 -56 185 -56 293c0 107.333 18.667 205.333 56 294c22.667 56 50 103.333 82 142l21 25zM89 607.498c-28.667 -69.667 -43 -155.501 -43 -257.501c0 -101.333 14.333 -186.666 43 -255.999s58 -122.333 88 -159l112 94c-20.667 25.333 -42 64.833 -64 118.5
s-33 121.167 -33 202.5s11 149 33 203s43.333 93.667 64 119l-112 94c-30 -36 -59.333 -88.833 -88 -158.5z" />
    <glyph glyph-name="parenright" unicode=")" horiz-adv-x="312" 
d="M160 788c31.333 -38 58.666 -85.3301 81.999 -141.997c37.333 -88.667 56 -186.667 56 -294s-18.667 -205.333 -56 -294c-23.333 -56.667 -50.666 -104 -81.999 -142l-21 -25l-161 135l20 25c6.66699 7.33301 14.667 18.666 24 33.999s18.333 34 27 56
c26 63.333 39 133.666 39 210.999c0 78 -13 148.333 -39 211c-8.66699 22 -17.667 40.667 -27 56s-17.333 26.666 -24 33.999l-20 25l161 134zM23 674.003c21.333 -26.667 42.833 -66.6689 64.5 -120.002s32.5 -120.666 32.5 -201.999s-10.833 -148.666 -32.5 -201.999
s-43.167 -93.333 -64.5 -120l112 -93c29.333 34.667 58.5 87 87.5 157s43.5 156 43.5 258s-14.5 188 -43.5 258s-58.167 122.333 -87.5 157z" />
    <glyph glyph-name="comma" unicode="," horiz-adv-x="273" 
d="M145 -73h-164l67 253h231zM73 148l-50 -189h102l101 189h-153z" />
    <glyph glyph-name="hyphen" unicode="-" horiz-adv-x="388" 
d="M374 245h-360v210h360v-210zM46 423v-146h296v146h-296z" />
    <glyph glyph-name="period" unicode="." horiz-adv-x="234" 
d="M186 156c22.667 -22.667 34 -49.667 34 -81s-11.333 -58.333 -34 -81s-49.667 -34 -81 -34s-58.333 11.333 -81 34s-34 49.667 -34 81s11.333 58.333 34 81s49.667 34 81 34s58.333 -11.333 81 -34zM46.5 134c-16.333 -16 -24.5 -35.667 -24.5 -59
c0 -22.667 8.16699 -42.167 24.5 -58.5s35.833 -24.5 58.5 -24.5c23.333 0 43 8.16699 59 24.5s24 35.833 24 58.5c0 23.333 -8 43 -24 59s-35.667 24 -59 24c-22.667 0 -42.167 -8 -58.5 -24z" />
    <glyph glyph-name="zero" unicode="0" horiz-adv-x="688" 
d="M481 711c41.333 -18.667 76.332 -45.333 104.999 -80s50.5 -75.834 65.5 -123.501s22.5 -100.167 22.5 -157.5s-7.5 -109.833 -22.5 -157.5s-36.833 -88.834 -65.5 -123.501c-30 -36 -65 -63 -105 -81c-41.333 -18.667 -87 -28 -137 -28c-50.667 0 -96 9.33301 -136 28
c-40 17.333 -75 44.333 -105 81c-29.333 34.667 -51.5 75.834 -66.5 123.501s-22.5 100.167 -22.5 157.5c0 56.667 7.5 108.834 22.5 156.501s37.167 89.167 66.5 124.5s64.333 62 105 80c42 19.333 87.333 29 136 29s94.334 -9.66699 137.001 -29zM186.499 664.001
c-45 -29.333 -79.667 -71 -104 -125s-36.5 -117 -36.5 -189s12.167 -135 36.5 -189s59 -95.667 104 -125s97.5 -44 157.5 -44s112.5 14.667 157.5 44s79.667 71 104 125s36.5 117 36.5 189s-12.167 135 -36.5 189s-59 95.667 -104 125s-97.5 44 -157.5 44
s-112.5 -14.667 -157.5 -44zM245.499 190.501c-29 28.333 -43.5 81.5 -43.5 159.5c0 77.333 14.5 130.333 43.5 159s61.833 43 98.5 43s69.5 -14.333 98.5 -43s43.5 -81.667 43.5 -159c0 -78 -14.5 -131.167 -43.5 -159.5s-61.833 -42.5 -98.5 -42.5
s-69.5 14.167 -98.5 42.5zM412.999 206.001c10.667 10 20 26.001 28 48.001c8.66699 25.333 13 57.333 13 96c0 39.333 -4.33301 71 -13 95c-6.66699 21.333 -16 37.666 -28 48.999c-18.667 17.333 -41.667 26 -69 26c-28 0 -50.667 -8.66699 -68 -26
c-12.667 -12.667 -22.334 -29 -29.001 -49c-8.66699 -27.333 -13 -59 -13 -95s4.33301 -68 13 -96c7.33301 -21.333 17 -37.333 29 -48c16.667 -17.333 39.334 -26 68.001 -26s51.667 8.66699 69 26z" />
    <glyph glyph-name="one" unicode="1" horiz-adv-x="450" 
d="M410 -30h-220.001v453c-46 -15.333 -95.333 -23 -148 -23l-32 -1v220l32 1c40.667 0 76.334 8 107.001 24c14.667 9.33301 25 18 31 26c6.66699 10 10 19.333 10 28l1 32h219v-760zM221.999 698c-0.666992 -33.333 -19.167 -60 -55.5 -80s-77.833 -30 -124.5 -30v-156
c65.333 0 124.333 12.333 177 37l3 1v-468h156v696h-156z" />
    <glyph glyph-name="two" unicode="2" horiz-adv-x="594" 
d="M413 720c34 -12.667 63.665 -31.332 88.998 -55.999c26 -26 45.333 -55.333 58 -88c13.333 -32.667 20 -69.667 20 -111v-9v-2c-0.666992 -44.667 -11 -86 -31 -124c-20 -38.667 -47 -69.334 -81 -92.001l-67 -48h169v-220h-560v209l334 241
c10.667 6.66699 16 21.667 16 45c0 14 -1.66699 24.333 -5 31c-2.66699 5.33301 -6.66699 10.333 -12 15c-9.33301 6 -23.666 9 -42.999 9c-21.333 0 -36.666 -3.66699 -45.999 -11c-8 -8 -12.667 -19.667 -14 -35l-2 -31l-220 15l3 32c3.33301 40 12 74 26 102
c14 31.333 33.667 58 59 80s54.5 38.833 87.5 50.5s68.5 17.5 106.5 17.5c39.333 0 77 -6.66699 113 -20zM127.498 648.002c-45 -40 -69.833 -93.332 -74.5 -159.999l155 -11c2.66699 25.333 11.5 44.166 26.5 56.499s36.833 18.5 65.5 18.5
c25.333 0 45.666 -4.66699 60.999 -14c20.667 -14 31 -38.333 31 -73c0 -33.333 -9.66699 -57 -29 -71l-321 -231v-161h496v156h-236l147 106c30 20 53.667 46.667 71 80c18 35.333 27.333 72.333 28 111v2v8c0 48 -10.333 90.333 -31 127s-49.667 65.167 -87 85.5
s-80.666 30.5 -129.999 30.5c-70 0 -127.5 -20 -172.5 -60z" />
    <glyph glyph-name="three" unicode="3" horiz-adv-x="604" 
d="M223 263l0.00292969 -35.002c0.666992 -15.333 6 -26.666 16 -33.999c13.333 -9.33301 34.666 -14 63.999 -14c30 0 51.667 4.66699 65 14c10 7.33301 15 19.333 15 36c0 16 -5 27.667 -15 35c-12.667 10 -34.334 15 -65.001 15c-4.66699 0 -11.667 -0.666992 -21 -2
l-20 -2l-93 148l75 86h-192v220h510v-198l-88 -74c34 -19.333 61.333 -44 82 -74c31.333 -43.333 47 -94.666 47 -153.999c0 -41.333 -7.33301 -78 -22 -110c-14 -32.667 -34.667 -61.667 -62 -87c-28.667 -24.667 -60.667 -42.667 -96 -54
c-35.333 -12.667 -75.333 -19 -120 -19c-84.667 0 -154.334 22.667 -209.001 68c-26 22 -47.333 48.667 -64 80c-15.333 32 -24 66 -26 102l-2 30zM115.003 52.998c23.333 -20 51.1699 -35.167 83.5029 -45.5s67.166 -15.5 104.499 -15.5
c53.333 0 100.166 9.83301 140.499 29.5s71.666 47.5 93.999 83.5s33.5 77.667 33.5 125c0 52 -13.667 97.333 -41 136c-26.667 38 -64.334 65.667 -113.001 83l-3 1l116 97v151h-446v-156h231l-107 -121l70 -111c10.667 1.33301 19 2 25 2c74.667 0 112 -27.333 112 -82
s-37.333 -82 -112 -82c-73.333 0 -110.666 26.667 -111.999 80l-155 -16c4 -66.667 30.333 -119.667 79 -159z" />
    <glyph glyph-name="four" unicode="4" horiz-adv-x="610" 
d="M540 310h80v-210h-80v-130h-220v130h-320v193l329 437h211v-420zM344 698l-312 -416v-150h320v-130h156v130h80v146h-80v420h-164zM352 464v-186h-141zM320 310v59l-45 -59h45z" />
    <glyph glyph-name="five" unicode="5" horiz-adv-x="588" 
d="M568 520l-183.999 -0.000976562c14 -3.33301 25.333 -6.66602 34 -9.99902c36.667 -12.667 68.667 -31.667 96 -57s48 -55 62 -89c14.667 -36.667 22 -74.667 22 -114s-7.33301 -77.333 -22 -114c-14 -34 -34.667 -63.667 -62 -89
c-26.667 -24.667 -58.667 -43.667 -96 -57c-38 -13.333 -78 -20 -120 -20c-81.333 0 -149 22 -203 66c-26.667 20.667 -48 46 -64 76s-26.333 62.667 -31 98l-3 29l220 48l1 -39c0 -18.667 5.33301 -32.667 16 -42c14 -10.667 35.333 -16 64 -16c28 0 49 5.33301 63 16
c11.333 9.33301 17 24 17 44c0 22.667 -6.33301 39.667 -19 51c-12.667 12.667 -33 19 -61 19c-24.667 0 -44.334 -0.333008 -59.001 -1h-5l-186 23v398h520v-220zM80.001 707.999l0.00195312 -338.003l158 -19c14.667 0.666992 34.667 1 60 1
c36.667 0 64.667 -9.33301 84 -28c18.667 -18.667 28 -43.334 28 -74.001c0 -30 -9.66699 -53 -29 -69c-18.667 -15.333 -46.334 -23 -83.001 -23s-64.667 7.66699 -84 23c-18.667 15.333 -28 37.666 -28 66.999l-154 -34c8 -63.333 35.667 -114.666 83 -153.999
c23.333 -18.667 50.666 -33 81.999 -43s65 -15 101 -15c52.667 0 99.334 10.333 140.001 31s72.167 49.834 94.5 87.501s33.5 80.834 33.5 129.501s-11.167 91.834 -33.5 129.501s-53.833 66.834 -94.5 87.501s-87.334 31 -140.001 31c-18.667 0 -38.667 -1.66699 -60 -5h-2
v59h300v156h-456z" />
    <glyph glyph-name="six" unicode="6" horiz-adv-x="609" 
d="M457 677c-8.66699 -10 -22.667 -27.832 -42 -53.499s-38.333 -54.167 -57 -85.5c70 -8 128 -34 174 -78c27.333 -26 48 -57.333 62 -94c14 -34.667 21 -73.334 21 -116.001s-7 -81.667 -21 -117c-15.333 -37.333 -36 -68.333 -62 -93
c-27.333 -26.667 -59.333 -46.334 -96 -59.001c-37.333 -14 -77.666 -21 -120.999 -21c-42.667 0 -82.667 7 -120 21c-36.667 12.667 -68.667 32.334 -96 59.001s-48 57.667 -62 93c-14.667 36.667 -22 75.667 -22 117c0 51.333 11.667 108 35 170
c19.333 50.667 44 100.667 74 150c33.333 56 68.666 105.667 105.999 149l9 11h262zM254 698.001c-35.333 -41.333 -69.665 -89.665 -102.998 -144.998c-30.667 -51.333 -54.334 -99.333 -71.001 -144c-22 -58 -33 -111 -33 -159c0 -50.667 11.167 -95.5 33.5 -134.5
s53.833 -69.333 94.5 -91s87.334 -32.5 140.001 -32.5c53.333 0 100.166 10.833 140.499 32.5s71.666 52 93.999 91s33.5 83.833 33.5 134.5c0 77.333 -24.333 139.666 -73 186.999c-50.667 47.333 -115.667 71 -195 71h-7h-4l2 3c32.667 61.333 74.667 123.666 126 186.999
h-178zM249.001 161.002c-30.667 16.667 -46 46.332 -46 88.999s15.333 72.334 46 89.001c16.667 8.66699 38.667 13 66 13c28 0 50 -4.33301 66 -13c30.667 -16 46 -45.667 46 -89s-15.333 -73 -46 -89c-16 -8.66699 -38 -13 -66 -13c-27.333 0 -49.333 4.33301 -66 13z
M367.001 189c18.667 10 28 30.332 28 60.999s-9.33301 51 -28 61c-12 6 -29.333 9 -52 9c-22 0 -39 -3 -51 -9c-19.333 -9.33301 -29 -29.666 -29 -60.999c0 -30.667 9.66699 -51 29 -61c12 -6 29 -9 51 -9c22.667 0 40 3 52 9z" />
    <glyph glyph-name="seven" unicode="7" horiz-adv-x="530" 
d="M550 531l-286 -561h-247l276 540h-303v220h560v-199zM22 698v-156h320v-4l1 1l-274 -537h176l273 536v160h-496z" />
    <glyph glyph-name="eight" unicode="8" horiz-adv-x="605" 
d="M501 671c23.333 -21.333 41.166 -46.833 53.499 -76.5s18.5 -60.834 18.5 -93.501c0 -41.333 -14.333 -81 -43 -119c22.667 -21.333 40.334 -45.833 53.001 -73.5s19 -55.5 19 -83.5c0 -36.667 -6.83301 -71.167 -20.5 -103.5s-33.5 -60.5 -59.5 -84.5
c-27.333 -25.333 -59.5 -44.5 -96.5 -57.5s-77.833 -19.5 -122.5 -19.5s-85.5 6.5 -122.5 19.5s-69.167 32.167 -96.5 57.5c-26 24 -45.833 52.167 -59.5 84.5s-20.5 66.833 -20.5 103.5c0 28 6.33301 55.833 19 83.5s30.334 52.167 53.001 73.5
c-28.667 38 -43 77.667 -43 119c0 32.667 6.16699 63.834 18.5 93.501s30.166 55.167 53.499 76.5c50 46 116 69 198 69s148 -23 198 -69zM127 647c-20 -18.667 -35.333 -40.5 -46 -65.5s-16 -51.833 -16 -80.5c0 -21.333 4.83301 -42.5 14.5 -63.5s23.5 -39.833 41.5 -56.5
l1 -2l-1 -1c-26.667 -20 -47.5 -43.5 -62.5 -70.5s-22.5 -54.5 -22.5 -82.5c0 -32.667 6 -63 18 -91s29.333 -52.667 52 -74c24 -22 52.833 -38.833 86.5 -50.5s70.5 -17.5 110.5 -17.5s76.833 5.83301 110.5 17.5s62.5 28.5 86.5 50.5c22.667 21.333 40 46 52 74
s18 58.333 18 91c0 28 -7.5 55.5 -22.5 82.5s-35.833 50.5 -62.5 70.5l-1 1l1 2c18 16.667 31.833 35.5 41.5 56.5s14.5 42.167 14.5 63.5c0 28.667 -5.33301 55.5 -16 80.5s-26 46.833 -46 65.5c-44 40.667 -102.667 61 -176 61s-132 -20.333 -176 -61zM246 435
c-26.667 12 -40 34.667 -40 68s13.333 56 40 68c14 6.66699 33 10 57 10s43 -3.33301 57 -10c26.667 -12 40 -34.667 40 -68s-13.333 -56 -40 -68c-14 -6 -33 -9 -57 -9s-43 3 -57 9zM347 464c14 7.33301 21.002 20.333 21.002 39c0 11.333 -1.83301 19.833 -5.5 25.5
s-8.83398 10.167 -15.501 13.5c-10 4.66699 -24.667 7 -44 7s-34 -2.33301 -44 -7c-6.66699 -3.33301 -11.834 -7.83301 -15.501 -13.5s-5.5 -14.167 -5.5 -25.5c0 -18.667 7 -31.667 21 -39c10 -4 24.667 -6 44 -6s34 2 44 6zM237.002 140
c-30.667 14.667 -46 42.334 -46 83.001s15.333 68.334 46 83.001c16 8 38 12 66 12s50 -4 66 -12c30.667 -14.667 46 -42.334 46 -83.001s-15.333 -68.334 -46 -83.001c-16 -8 -38 -12 -66 -12s-50 4 -66 12zM355.002 169c9.33301 4 16 10 20 18
c5.33301 9.33301 8 21.333 8 36s-2.66699 26.667 -8 36c-4 8 -10.667 14 -20 18c-12 6 -29.333 9 -52 9s-40 -3 -52 -9c-9.33301 -4 -16 -10 -20 -18c-5.33301 -9.33301 -8 -21.333 -8 -36s2.66699 -26.667 8 -36c4 -8 10.667 -14 20 -18c12 -6 29.333 -9 52 -9s40 3 52 9z
" />
    <glyph glyph-name="nine" unicode="9" horiz-adv-x="624" 
d="M430 720c37.333 -14 69.3379 -34 96.0049 -60c27.333 -26 48 -56.667 62 -92c14.667 -38 22 -77.333 22 -118c0 -50.667 -11.667 -107 -35 -169c-18.667 -49.333 -43.334 -99.333 -74.001 -150c-20.667 -35.333 -41.834 -67.333 -63.501 -96
s-35.834 -46.334 -42.501 -53.001l-9 -12h-262l44 53c36.667 44 69.667 90.667 99 140c-28.667 3.33301 -54.667 9.33301 -78 18c-36.667 14 -68.667 34 -96 60c-26.667 24.667 -47.334 55.334 -62.001 92.001c-14 36 -21 75 -21 117c0 42.667 7 82 21 118
c14 35.333 34.667 66 62 92c26.667 26 58.667 46 96 60c35.333 13.333 75.666 20 120.999 20c44.667 0 84.667 -6.66699 120 -20zM169.505 676c-40.333 -21.333 -71.6631 -51.499 -93.9961 -90.499s-33.5 -84.167 -33.5 -135.5c0 -50.667 11.167 -95.5 33.5 -134.5
s53.666 -69.333 93.999 -91s87.166 -32.5 140.499 -32.5c3.33301 0 5.66602 0.333008 6.99902 1h4l-2 -3c-30 -56.667 -58 -101.667 -84 -135s-40 -51 -42 -53h178c35.333 41.333 69.666 89.666 102.999 144.999c30 50.667 53.667 99 71 145c22 57.333 33 110 33 158
c0 51.333 -11.167 96.5 -33.5 135.5s-53.833 69.167 -94.5 90.5s-87.334 32 -140.001 32c-53.333 0 -100.166 -10.667 -140.499 -32zM243.008 361.001c-30 16 -45 45.668 -45 89.001c0 44 15 74 45 90c16.667 8 39 12 67 12c27.333 0 49.333 -4 66 -12
c30.667 -16.667 46 -46.667 46 -90c0 -42.667 -15.333 -72.334 -46 -89.001c-16.667 -8.66699 -38.667 -13 -66 -13c-28 0 -50.333 4.33301 -67 13zM361.008 390.002c19.333 10 29 30 29 60c0 31.333 -9.66699 51.666 -29 60.999c-12 6 -29 9 -51 9c-22.667 0 -40 -3 -52 -9
c-11.333 -6 -18.833 -14.167 -22.5 -24.5s-5.5 -22.5 -5.5 -36.5c0 -13.333 1.83301 -25.166 5.5 -35.499s11.167 -18.5 22.5 -24.5c12 -6.66699 29.333 -10 52 -10c22 0 39 3.33301 51 10z" />
    <glyph glyph-name="question" unicode="?" horiz-adv-x="480" 
d="M-29 526c4 30.667 13.334 59.332 28.001 85.999s33.667 50.334 57 71.001c23.333 20 49.5 35.333 78.5 46s59.167 16 90.5 16c34.667 0 68 -5.66699 100 -17c31.333 -12 58.666 -28.667 81.999 -50c23.333 -22 41.333 -47.833 54 -77.5s19 -61.167 19 -94.5
c0 -32 -6.33301 -62.5 -19 -91.5s-31 -54.833 -55 -77.5h-1l-76 -67v-76h-210v171l144 127c4.66699 4 7 8.66699 7 14c0 6 -1 10.667 -3 14s-5.66699 6.33301 -11 9c-8.66699 4 -19 6 -31 6c-11.333 0 -21.5 -3.33301 -30.5 -10s-14.167 -15 -15.5 -25l-4 -31l-208 25z
M148.001 504.998c2.66699 17.333 11.334 32 26.001 44s31.667 18 51 18c17.333 0 32.333 -3 45 -9c21.333 -10 32 -27.333 32 -52c0 -14.667 -5.66699 -27.334 -17 -38.001l-53 -47l-81 -71v-124h146v58l87 77c20.667 19.333 36.5 41.5 47.5 66.5s16.5 51.167 16.5 78.5
c0 39.333 -9.66699 74.833 -29 106.5s-45.833 56.334 -79.5 74.001s-71.834 26.5 -114.501 26.5c-37.333 0 -72 -8.33301 -104 -25s-58.5 -39.5 -79.5 -68.5s-33.833 -61.5 -38.5 -97.5zM143.001 155.998c22.667 22.667 49.667 34 81 34c32 0 59.167 -11.333 81.5 -34
s33.5 -49.667 33.5 -81c0 -32 -11.167 -59.167 -33.5 -81.5s-49.5 -33.5 -81.5 -33.5c-31.333 0 -58.333 11.167 -81 33.5s-34 49.5 -34 81.5c0 31.333 11.333 58.333 34 81zM165.501 16.498c16.333 -16.333 35.833 -24.5 58.5 -24.5c23.333 0 43 8.16699 59 24.5
s24 35.833 24 58.5c0 23.333 -8 43 -24 59s-35.667 24 -59 24c-22.667 0 -42.167 -8.16699 -58.5 -24.5s-24.5 -35.833 -24.5 -58.5s8.16699 -42.167 24.5 -58.5z" />
    <glyph glyph-name="A" unicode="A" 
d="M809 -30h-238l-46 110h-275l-46 -110h-239l316 760h213zM302 698l-289 -696h170l45 110h319l45 -110h169l-288 696h-171zM387 496l95 -228h-189zM434 300l-47 113l-46 -113h93z" />
    <glyph glyph-name="B" unicode="B" horiz-adv-x="725" 
d="M40 730h421c32 -1.33301 62.5 -8.33301 91.5 -21s54.833 -30.334 77.5 -53.001c22.667 -23.333 40 -49.666 52 -78.999s18 -60 18 -92c0 -42.667 -10.667 -82.667 -32 -120c34.667 -44 52 -94 52 -150c0 -32 -6 -62.667 -18 -92s-29.333 -55.666 -52 -78.999
c-22.667 -22.667 -48.5 -40.334 -77.5 -53.001s-59.5 -19.667 -91.5 -21h-441v760zM480 2c28 1.33301 54.667 7.33203 80 17.999s47.666 26 66.999 46s34.333 42.833 45 68.5s16 52.5 16 80.5c0 26.667 -5 52.667 -15 78s-24.333 48 -43 68l-1 1l1 1
c25.333 36.667 38 77.334 38 122.001c0 28 -5.33301 54.833 -16 80.5s-25.667 48.5 -45 68.5s-41.666 35.333 -66.999 46s-52 16.667 -80 18h-388v-696h408zM228 541.999l227 -0.00195312c15.333 0 28.666 -5.66699 39.999 -17s17 -24.666 17 -39.999
s-5.66699 -28.666 -17 -39.999s-24.666 -17 -39.999 -17h-227v114zM455 459.997c7.33301 0 13.333 2.5 18 7.5s7 10.833 7 17.5c0 7.33301 -2.33301 13.333 -7 18s-10.667 7 -18 7h-195v-50h195zM228 271.997l247 -0.00195312c15.333 0 28.666 -5.66699 39.999 -17
s17 -24.666 17 -39.999s-5.66699 -28.666 -17 -39.999s-24.666 -17 -39.999 -17h-247v114zM475 189.995c7.33301 0 13.333 2.5 18 7.5s7 10.833 7 17.5c0 7.33301 -2.33301 13.333 -7 18s-10.667 7 -18 7h-215v-50h215z" />
    <glyph glyph-name="C" unicode="C" horiz-adv-x="769" 
d="M521 729c32.667 -7.33301 62.334 -17.6689 89.001 -31.002c28.667 -14 55.334 -30.667 80.001 -50c23.333 -18.667 45.333 -41 66 -67l20 -26l-175 -133l-20 25c-17.333 22.667 -39.833 40.5 -67.5 53.5s-57.167 19.5 -88.5 19.5c-28.667 0 -53.667 -4.66699 -75 -14
c-22.667 -8 -43 -20.333 -61 -37c-17.333 -16 -30.833 -34.167 -40.5 -54.5s-14.5 -41.833 -14.5 -64.5s4.83301 -44.167 14.5 -64.5s23.167 -38.5 40.5 -54.5c16 -14.667 36.333 -27 61 -37c24 -9.33301 49 -14 75 -14c30.667 0 60 6.5 88 19.5s50.667 30.833 68 53.5
l20 25l175 -133l-20 -25c-19.333 -26 -41.333 -48.667 -66 -68s-51.334 -36 -80.001 -50c-30.667 -14 -60.334 -24.333 -89.001 -31c-33.333 -7.33301 -65.333 -11 -96 -11c-74.667 0 -143.334 17.5 -206.001 52.5s-112.5 82.333 -149.5 142s-55.5 124.834 -55.5 195.501
s18.5 135.834 55.5 195.501s86.833 107 149.5 142s131.334 52.5 206.001 52.5c30.667 0 62.667 -3.66699 96 -11zM235 659.997c-58 -32 -104 -75.5 -138 -130.5s-51 -114.833 -51 -179.5s17 -124.334 51 -179.001s80 -98.167 138 -130.5s121.333 -48.5 190 -48.5
c60 0 117.167 13 171.5 39s99.166 62 134.499 108l-124 95c-20.667 -26.667 -47.167 -47.667 -79.5 -63s-66.5 -23 -102.5 -23c-40 0 -77.167 9.16699 -111.5 27.5s-61.5 42.833 -81.5 73.5s-30 64.334 -30 101.001s10 70.5 30 101.5s47 55.5 81 73.5s71.333 27 112 27
c36 0 70.167 -7.66699 102.5 -23s58.833 -36.333 79.5 -63l124 95c-35.333 46 -80.166 82 -134.499 108s-111.5 39 -171.5 39c-68.667 0 -132 -16 -190 -48z" />
    <glyph glyph-name="D" unicode="D" 
d="M570.5 679c58.333 -34 104.5 -80.167 138.5 -138.5s51 -121.833 51 -190.5s-17 -132.167 -51 -190.5s-80.167 -104.5 -138.5 -138.5s-121.833 -51 -190.5 -51h-340v760h340c68.667 0 132.167 -17 190.5 -51zM72 698v-695.998h308c62.667 0 120.667 15.667 174 47
s95.666 73.666 126.999 126.999s47 111.333 47 174s-15.667 120.667 -47 174s-73.666 95.666 -126.999 126.999s-111.333 47 -174 47h-308zM228 542.002l152 -0.00195312c34.667 0 66.667 -8.66699 96 -26s52.666 -40.666 69.999 -69.999s26 -61.333 26 -96
s-8.66699 -66.667 -26 -96s-40.666 -52.666 -69.999 -69.999s-61.333 -26 -96 -26h-152v384zM260 190l120 -0.00195312c28.667 0 55.334 7.16699 80.001 21.5s44.167 33.833 58.5 58.5s21.5 51.334 21.5 80.001s-7.16699 55.334 -21.5 80.001s-33.833 44.167 -58.5 58.5
s-51.334 21.5 -80.001 21.5h-120v-320z" />
    <glyph glyph-name="E" unicode="E" horiz-adv-x="670" 
d="M650 510h-390v-55h330v-210h-330v-55h390v-220h-610v760h610v-220zM72 698v-696h546v156h-390v119h330v146h-330v119h390v156h-546z" />
    <glyph glyph-name="F" unicode="F" horiz-adv-x="635" 
d="M630 510h-370v-65h310v-200h-310v-275h-220v760h590v-220zM72 698v-696h156v275h310v136h-310v129h370v156h-526z" />
    <glyph glyph-name="G" unicode="G" horiz-adv-x="794" 
d="M519 729c32 -7.33301 62.001 -17.6699 90.001 -31.0029c28.667 -14 55 -30.667 79 -50c24.667 -19.333 46.667 -42 66 -68l20 -25l-164 -125h163v-283l-5 -8c-38 -55.333 -86.333 -98.666 -145 -129.999c-62 -32.667 -128.333 -49 -199 -49
c-74.667 0 -143.334 17.5 -206.001 52.5s-112.5 82.333 -149.5 142s-55.5 124.834 -55.5 195.501s18.333 135.834 55 195.501s86.5 107 149.5 142s131.5 52.5 205.5 52.5c31.333 0 63.333 -3.66699 96 -11zM234.001 659.996c-58 -32 -103.999 -75.501 -137.999 -130.501
s-51 -114.833 -51 -179.5s17 -124.334 51 -179.001s80 -98.167 138 -130.5s121.333 -48.5 190 -48.5c65.333 0 126.666 15.333 183.999 46c55.333 28.667 99.666 68.334 132.999 119.001v241h-311v-136h155v-50c-20.667 -20.667 -45.167 -36.5 -73.5 -47.5
s-57.833 -16.5 -88.5 -16.5c-40 0 -77 9.16699 -111 27.5s-61 42.833 -81 73.5s-30 64.334 -30 101.001s10 70.5 30 101.5s47 55.5 81 73.5s71 27 111 27c36.667 0 70.834 -7.5 102.501 -22.5s58.167 -36.167 79.5 -63.5l124 95c-35.333 46 -80 82 -134 108
s-111.333 39 -172 39c-68 0 -131 -16 -189 -48zM492.502 191.995c22.333 8 42.5 19.3311 60.5 33.998v4h-155v200h195l-13 17c-18 23.333 -40.833 41.333 -68.5 54s-57.167 19 -88.5 19c-28 0 -52.667 -4.66699 -74 -14c-21.333 -7.33301 -41.666 -19.666 -60.999 -36.999
c-17.333 -16 -30.833 -34.167 -40.5 -54.5s-14.5 -41.833 -14.5 -64.5s4.83301 -44.167 14.5 -64.5s23.167 -38.5 40.5 -54.5c17.333 -15.333 37.666 -27.666 60.999 -36.999c24 -9.33301 48.667 -14 74 -14c24 0 47.167 4 69.5 12z" />
    <glyph glyph-name="H" unicode="H" horiz-adv-x="780" 
d="M740 -30h-220v270h-260v-270h-220v760h220v-270h260v270h220v-760zM552 698v-270h-324v270h-156v-696h156v270h324v-270h156v696h-156z" />
    <glyph glyph-name="I" unicode="I" horiz-adv-x="290" 
d="M250 -30h-220v760h220v-760zM62 698v-696h156v696h-156z" />
    <glyph glyph-name="J" unicode="J" horiz-adv-x="665" 
d="M5 300h220.001v-31c0 -24 9 -45 27 -63c18.667 -17.333 39.667 -26 63 -26c24.667 0 45.834 8.83301 63.501 26.5s26.5 38.834 26.5 63.501v460h220v-460c0 -56 -13.833 -107.833 -41.5 -155.5s-65.334 -85.334 -113.001 -113.001s-99.5 -41.5 -155.5 -41.5
c-42.667 0 -82.667 8.33301 -120 25c-36.667 15.333 -69.334 37 -98.001 65c-28 28 -50.333 60.667 -67 98c-16.667 39.333 -25 79.333 -25 120v32zM74.501 129.5c25 -42.333 58.834 -75.834 101.501 -100.501s89 -37 139 -37s96.333 12.5 139 37.5s76.5 58.833 101.5 101.5
s37.5 89 37.5 139v428h-156v-428c0 -33.333 -12 -62 -36 -86s-52.667 -36 -86 -36s-61.833 11.833 -85.5 35.5s-35.834 51.834 -36.501 84.501h-156c0 -50 12.5 -96.167 37.5 -138.5z" />
    <glyph glyph-name="K" unicode="K" horiz-adv-x="755" 
d="M260 500l204 230h295l-290 -326l327 -434h-276l-200 267l-60 -68v-199h-220v760h220v-230zM72 698v-696h156v180l94 105l214 -285h195l-303 404l260 292h-209l-251 -282v282h-156z" />
    <glyph glyph-name="L" unicode="L" horiz-adv-x="645" 
d="M260 190h380v-220h-600v760h220v-540zM72 698v-696h536v156h-380v540h-156z" />
    <glyph glyph-name="M" unicode="M" horiz-adv-x="880" 
d="M840 -30h-220v194l-83 -194h-204l-73 177v-177h-220v760h217l180 -435l186 435h217v-760zM644 698l-208 -485l-201 485h-163v-696h156v296l4 1l123 -297h161l132 309l4 -1v-308h156v696h-164z" />
    <glyph glyph-name="N" unicode="N" horiz-adv-x="820" 
d="M265 730l295 -398v398h220v-760h-225l-295 398v-398h-220v760h225zM592 698v-462l-343 462h-177v-696h156v462l343 -462h177v696h-156z" />
    <glyph glyph-name="O" unicode="O" horiz-adv-x="808" 
d="M599.5 687.5c59.667 -35 107 -82.333 142 -142s52.5 -124.834 52.5 -195.501s-17.5 -135.834 -52.5 -195.501s-82.333 -107 -142 -142s-124.834 -52.5 -195.501 -52.5s-135.834 17.5 -195.501 52.5s-107 82.333 -142 142s-52.5 124.834 -52.5 195.501
s17.5 135.834 52.5 195.501s82.333 107 142 142s124.834 52.5 195.501 52.5s135.834 -17.5 195.501 -52.5zM225 659.5c-54.667 -32.333 -98.167 -75.833 -130.5 -130.5s-48.5 -114.334 -48.5 -179.001s16.167 -124.5 48.5 -179.5s75.833 -98.5 130.5 -130.5
s114.334 -48 179.001 -48s124.334 16 179.001 48s98.167 75.5 130.5 130.5s48.5 114.833 48.5 179.5s-16.167 124.334 -48.5 179.001s-75.833 98.167 -130.5 130.5s-114.334 48.5 -179.001 48.5s-124.334 -16.167 -179.001 -48.5zM303 175
c-30.667 18 -55.167 42.5 -73.5 73.5s-27.5 64.833 -27.5 101.5s9.16699 70.334 27.5 101.001s42.833 55.167 73.5 73.5s64.334 27.5 101.001 27.5s70.334 -9.16699 101.001 -27.5s55.167 -42.833 73.5 -73.5s27.5 -64.334 27.5 -101.001s-9.16699 -70.5 -27.5 -101.5
s-42.833 -55.5 -73.5 -73.5s-64.334 -27 -101.001 -27s-70.334 9 -101.001 27zM489 203c26 15.333 46.667 36 62 62s23 54.333 23 85s-7.66699 59 -23 85s-36 46.667 -62 62s-54.333 23 -85 23s-59 -7.66699 -85 -23s-46.667 -36 -62 -62s-23 -54.333 -23 -85
s7.66699 -59 23 -85s36 -46.667 62 -62s54.333 -23 85 -23s59 7.66699 85 23z" />
    <glyph glyph-name="P" unicode="P" horiz-adv-x="734" 
d="M580 692c42.667 -25.333 76.667 -59.3311 102 -101.998s38 -89.334 38 -140.001s-12.667 -97.334 -38 -140.001s-59.333 -76.667 -102 -102s-89.334 -38 -140.001 -38h-180v-200h-220v760h400c50.667 0 97.334 -12.667 140.001 -38zM72 698.002v-696h156v200h212
c44.667 0 86 11.167 124 33.5s68.167 52.5 90.5 90.5s33.5 79.333 33.5 124s-11.167 86 -33.5 124s-52.5 68.167 -90.5 90.5s-79.333 33.5 -124 33.5h-368zM228 542.002h212c25.333 0 47 -9 65 -27s27 -39.667 27 -65s-9 -47 -27 -65s-39.667 -27 -65 -27h-212v184z
M260 390.002l180 -0.00195312c16.667 0 30.834 5.83301 42.501 17.5s17.5 25.834 17.5 42.501s-5.83301 30.834 -17.5 42.501s-25.834 17.5 -42.501 17.5h-180v-120z" />
    <glyph glyph-name="Q" unicode="Q" horiz-adv-x="808" 
d="M599.5 687.5c59.667 -35 106.999 -82.335 141.999 -142.002s52.5 -124.834 52.5 -195.501c0 -48.667 -8.33301 -94 -25 -136c-12 -33.333 -28.667 -64.666 -50 -93.999l64 -63l-156 -156l-84 85c-46 -17.333 -92.333 -26 -139 -26c-70.667 0 -135.834 17.5 -195.501 52.5
s-107 82.333 -142 142s-52.5 124.834 -52.5 195.501s17.5 135.834 52.5 195.501s82.333 107 142 142s124.834 52.5 195.501 52.5s135.834 -17.5 195.501 -52.5zM224.999 659.498c-54.667 -32.333 -98.165 -75.832 -130.498 -130.499s-48.5 -114.334 -48.5 -179.001
s16.167 -124.334 48.5 -179.001s75.833 -98.167 130.5 -130.5s114.334 -48.5 179.001 -48.5c51.333 0 99.666 10.333 144.999 31h1l77 -77l111 111l-62 61l2 1c26 32 46.667 67.333 62 106c14.667 42 22 83.667 22 125c0 64.667 -16.167 124.334 -48.5 179.001
s-75.833 98.167 -130.5 130.5s-114.334 48.5 -179.001 48.5s-124.334 -16.167 -179.001 -48.5zM303.001 175.499c-30.667 18.333 -55.167 42.833 -73.5 73.5s-27.5 64.334 -27.5 101.001s9.16699 70.334 27.5 101.001s42.833 55.167 73.5 73.5s64.334 27.5 101.001 27.5
s70.334 -9.16699 101.001 -27.5s55.167 -42.833 73.5 -73.5s27.5 -64.334 27.5 -101.001s-9.16699 -70.334 -27.5 -101.001s-42.833 -55.167 -73.5 -73.5s-64.334 -27.5 -101.001 -27.5s-70.334 9.16699 -101.001 27.5zM489.001 202.999c26 15.333 46.667 36 62 62
s23 54.333 23 85s-7.66699 59 -23 85s-36 46.667 -62 62s-54.333 23 -85 23s-59 -7.66699 -85 -23s-46.667 -36 -62 -62s-23 -54.333 -23 -85s7.66699 -59 23 -85s36 -46.667 62 -62s54.333 -23 85 -23s59 7.66699 85 23z" />
    <glyph glyph-name="R" unicode="R" horiz-adv-x="730" 
d="M580 692c42.667 -25.333 76.666 -59.334 101.999 -102.001s38 -89.334 38 -140.001c0 -57.333 -16 -109.666 -48 -156.999c-24 -35.333 -54.333 -63.666 -91 -84.999l179 -238h-275l-150 200h-75v-200h-220v760h400c50.667 0 97.334 -12.667 140.001 -38zM71.999 697.999
l-0.000976562 -696h156v200h123l150 -200h195l-164 218l3 1c44.667 18 81.334 48 110.001 90s43 88.333 43 139c0 44.667 -11.167 86 -33.5 124s-52.5 68.167 -90.5 90.5s-79.333 33.5 -124 33.5h-368zM227.998 541.999h212c25.333 0 47 -9 65 -27s27 -39.667 27 -65
s-9 -47 -27 -65s-39.667 -27 -65 -27h-212v184zM259.998 389.999l180 -0.00195312c16.667 0 30.834 5.83301 42.501 17.5s17.5 25.834 17.5 42.501s-5.83301 30.834 -17.5 42.501s-25.834 17.5 -42.501 17.5h-180v-120z" />
    <glyph glyph-name="S" unicode="S" horiz-adv-x="662" 
d="M439 725c34 -9.33301 65.3359 -23.002 94.0029 -41.002c28 -17.333 52 -38.666 72 -63.999c20 -27.333 33.333 -55.666 40 -84.999l7 -31l-184 -40l-29 -6l-9 28c-0.666992 2.66699 -3.33398 6.83398 -8.00098 12.501s-10.667 11.167 -18 16.5
c-22.667 16.667 -47.334 25 -74.001 25c-30.667 0 -56.334 -5.66699 -77.001 -17c-12.667 -7.33301 -19.667 -14 -21 -20c5.33301 -3.33301 14.666 -7.33301 27.999 -12c19.333 -6 52.333 -15.667 99 -29l7 -2c36 -9.33301 69.167 -19 99.5 -29s59.166 -23 86.499 -39
c36 -20.667 63.333 -44.334 82 -71.001c24 -32.667 36 -69.667 36 -111c0 -21.333 -3 -42 -9 -62c-6.66699 -20 -15.667 -38.333 -27 -55c-23.333 -34.667 -56 -63 -98 -85c-28 -15.333 -60 -27.166 -96 -35.499s-72.667 -12.5 -110 -12.5c-34.667 0 -70 4 -106 12
c-38.667 9.33301 -72 21.666 -100 36.999c-33.333 16.667 -61.333 37.334 -84 62.001c-24.667 27.333 -41.667 57.333 -51 90l-8 32l32 7l151 38l27 6l10 -23c4.66699 -6 14.667 -12.667 30 -20c28 -14 61 -21 99 -21c30.667 0 56.334 5.66699 77.001 17
c12.667 6 19.667 12.667 21 20c-5.33301 3.33301 -14.666 7.33301 -27.999 12c-19.333 6 -52.333 15.667 -99 29c-6.66699 1.33301 -11.667 2.66602 -15 3.99902c-36 9.33301 -67.667 18.5 -95 27.5s-53 20.833 -77 35.5c-69.333 42 -104 100.333 -104 175
c0 39.333 10 75 30 107c16.667 28 41.667 53 75 75c29.333 19.333 63 34 101 44c38.667 9.33301 76.667 14 114 14c38 0 74.333 -5 109 -15zM190.003 683.498c-44 -16.333 -79.6689 -40.168 -107.002 -71.501s-41 -68.666 -41 -111.999c0 -44 13 -79.667 39 -107
s56 -47.833 90 -61.5s75 -26.5 123 -38.5c3.33301 -1.33301 8.33301 -2.66602 15 -3.99902c46.667 -13.333 79.834 -23.166 99.501 -29.499s33.167 -12.5 40.5 -18.5s11 -13.667 11 -23s-3.33301 -18.166 -10 -26.499s-16 -15.833 -28 -22.5c-24 -14 -54.667 -21 -92 -21
c-42 0 -79.667 8 -113 24c-11.333 5.33301 -21.166 11.166 -29.499 17.499s-13.5 12.166 -15.5 17.499l-152 -38c9.33301 -36.667 30.166 -68.334 62.499 -95.001s70.666 -47 114.999 -61s88.5 -21 132.5 -21c34.667 0 68.5 3.83301 101.5 11.5s62.833 18.5 89.5 32.5
c38 20 67 45 87 75s30 63 30 99c0 34.667 -10 65.334 -30 92.001c-15.333 22 -39.333 43 -72 63c-25.333 14.667 -52 26.667 -80 36s-60.667 18.666 -98 27.999l-7 2c-46 12.667 -79.167 22.334 -99.5 29.001s-34.166 13 -41.499 19s-11 13.667 -11 23
s3.33301 18.166 10 26.499s16.334 15.833 29.001 22.5c24 14 54.667 21 92 21c34.667 0 66 -10.333 94 -31c10 -8 18.333 -16.167 25 -24.5s10.667 -15.5 12 -21.5l153 33c-8 34 -25.5 64.667 -52.5 92s-60.667 48.833 -101 64.5s-83.833 23.5 -130.5 23.5
c-49.333 0 -96 -8.16699 -140 -24.5z" />
    <glyph glyph-name="T" unicode="T" horiz-adv-x="700" 
d="M710 510h-250v-540h-220v540h-250v220h720v-220zM22 698v-156h250v-540h156v540h250v156h-656z" />
    <glyph glyph-name="U" unicode="U" horiz-adv-x="761" 
d="M731 310c0 -48.667 -9.33301 -94.001 -28 -136.001c-16 -40 -41 -77 -75 -111c-31.333 -32.667 -68.333 -58 -111 -76s-88 -27 -136 -27s-93.333 9 -136 27s-79.667 43.333 -111 76c-33.333 32 -58.333 69 -75 111c-18.667 42 -28 87.333 -28 136v420h220v-420
c0 -36 12.667 -66.667 38 -92s56 -38 92 -38s66.667 12.667 92 38c25.333 26.667 38 57.334 38 92.001v420h220v-420zM543 697.999l-0.000976562 -388.001c0 -21.333 -4.16699 -42 -12.5 -62s-20.166 -37.667 -35.499 -53s-32.833 -27 -52.5 -35s-40.167 -12 -61.5 -12
s-42 4 -62 12s-37.667 19.667 -53 35s-27 33 -35 53s-12 40.667 -12 62v388h-156v-388c0 -44.667 8.33301 -86 25 -124c16 -38 38.667 -71.667 68 -101c30.667 -29.333 64.334 -52 101.001 -68c39.333 -16.667 80.666 -25 123.999 -25c44 0 85 8.33301 123 25
c38 16 71.667 38.667 101 68c30 28.667 53 62.334 69 101.001c16.667 40.667 25 82 25 124v388h-156z" />
    <glyph glyph-name="V" unicode="V" horiz-adv-x="793" 
d="M503 -30h-213l-315 760h238l183 -443l184 443h238zM601 698l-205 -495l-204 495h-169l288 -696h171l288 696h-169z" />
    <glyph glyph-name="W" unicode="W" horiz-adv-x="1048" 
d="M841 -30h-212l-104 347l-104 -347h-212l-229 760h230l105 -348l104 348h212l104 -348l105 348h229zM863 698l-128 -427l-128 427h-164l-128 -427l-128 427h-164l209 -696h165l128 427l128 -427h165l208 696h-163z" />
    <glyph glyph-name="X" unicode="X" horiz-adv-x="788" 
d="M537 350l315 -380h-286l-172 207l-172 -207h-285l314 380l-314 380h285l172 -208l172 208h286zM581 698l-187 -226l-187 226h-202l288 -348l-288 -348h202l187 225l187 -225h203l-288 348l288 348h-203z" />
    <glyph glyph-name="Y" unicode="Y" horiz-adv-x="773" 
d="M497 247v-277h-220v277l-322 483h264l168 -252l168 252h265zM572 698l-185 -278l-185 278h-188l295 -442v-254h156v254l295 442h-188z" />
    <glyph glyph-name="Z" unicode="Z" horiz-adv-x="680" 
d="M680 528l-349 -338h349v-220h-681l1 203l341 337h-321v220h660v-202zM52 698v-156h367l-387 -383v-157h616v156h-396l396 383v157h-596z" />
    <glyph glyph-name="underscore" unicode="_" horiz-adv-x="488" 
d="M474 -30h-460v210h460v-210zM46 148v-146h396v146h-396z" />
    <glyph glyph-name="a" unicode="a" 
d="M809 -30h-238l-46 110h-275l-46 -110h-239l316 760h213zM302 698l-289 -696h170l45 110h319l45 -110h169l-288 696h-171zM387 496l95 -228h-189zM434 300l-47 113l-46 -113h93z" />
    <glyph glyph-name="b" unicode="b" horiz-adv-x="725" 
d="M40 730h421c32 -1.33301 62.5 -8.33301 91.5 -21s54.833 -30.334 77.5 -53.001c22.667 -23.333 40 -49.666 52 -78.999s18 -60 18 -92c0 -42.667 -10.667 -82.667 -32 -120c34.667 -44 52 -94 52 -150c0 -32 -6 -62.667 -18 -92s-29.333 -55.666 -52 -78.999
c-22.667 -22.667 -48.5 -40.334 -77.5 -53.001s-59.5 -19.667 -91.5 -21h-441v760zM480 2c28 1.33301 54.667 7.33203 80 17.999s47.666 26 66.999 46s34.333 42.833 45 68.5s16 52.5 16 80.5c0 26.667 -5 52.667 -15 78s-24.333 48 -43 68l-1 1l1 1
c25.333 36.667 38 77.334 38 122.001c0 28 -5.33301 54.833 -16 80.5s-25.667 48.5 -45 68.5s-41.666 35.333 -66.999 46s-52 16.667 -80 18h-388v-696h408zM228 541.999l227 -0.00195312c15.333 0 28.666 -5.66699 39.999 -17s17 -24.666 17 -39.999
s-5.66699 -28.666 -17 -39.999s-24.666 -17 -39.999 -17h-227v114zM455 459.997c7.33301 0 13.333 2.5 18 7.5s7 10.833 7 17.5c0 7.33301 -2.33301 13.333 -7 18s-10.667 7 -18 7h-195v-50h195zM228 271.997l247 -0.00195312c15.333 0 28.666 -5.66699 39.999 -17
s17 -24.666 17 -39.999s-5.66699 -28.666 -17 -39.999s-24.666 -17 -39.999 -17h-247v114zM475 189.995c7.33301 0 13.333 2.5 18 7.5s7 10.833 7 17.5c0 7.33301 -2.33301 13.333 -7 18s-10.667 7 -18 7h-215v-50h215z" />
    <glyph glyph-name="c" unicode="c" horiz-adv-x="769" 
d="M521 729c32.667 -7.33301 62.334 -17.6689 89.001 -31.002c28.667 -14 55.334 -30.667 80.001 -50c23.333 -18.667 45.333 -41 66 -67l20 -26l-175 -133l-20 25c-17.333 22.667 -39.833 40.5 -67.5 53.5s-57.167 19.5 -88.5 19.5c-28.667 0 -53.667 -4.66699 -75 -14
c-22.667 -8 -43 -20.333 -61 -37c-17.333 -16 -30.833 -34.167 -40.5 -54.5s-14.5 -41.833 -14.5 -64.5s4.83301 -44.167 14.5 -64.5s23.167 -38.5 40.5 -54.5c16 -14.667 36.333 -27 61 -37c24 -9.33301 49 -14 75 -14c30.667 0 60 6.5 88 19.5s50.667 30.833 68 53.5
l20 25l175 -133l-20 -25c-19.333 -26 -41.333 -48.667 -66 -68s-51.334 -36 -80.001 -50c-30.667 -14 -60.334 -24.333 -89.001 -31c-33.333 -7.33301 -65.333 -11 -96 -11c-74.667 0 -143.334 17.5 -206.001 52.5s-112.5 82.333 -149.5 142s-55.5 124.834 -55.5 195.501
s18.5 135.834 55.5 195.501s86.833 107 149.5 142s131.334 52.5 206.001 52.5c30.667 0 62.667 -3.66699 96 -11zM235 659.997c-58 -32 -104 -75.5 -138 -130.5s-51 -114.833 -51 -179.5s17 -124.334 51 -179.001s80 -98.167 138 -130.5s121.333 -48.5 190 -48.5
c60 0 117.167 13 171.5 39s99.166 62 134.499 108l-124 95c-20.667 -26.667 -47.167 -47.667 -79.5 -63s-66.5 -23 -102.5 -23c-40 0 -77.167 9.16699 -111.5 27.5s-61.5 42.833 -81.5 73.5s-30 64.334 -30 101.001s10 70.5 30 101.5s47 55.5 81 73.5s71.333 27 112 27
c36 0 70.167 -7.66699 102.5 -23s58.833 -36.333 79.5 -63l124 95c-35.333 46 -80.166 82 -134.499 108s-111.5 39 -171.5 39c-68.667 0 -132 -16 -190 -48z" />
    <glyph glyph-name="d" unicode="d" 
d="M570.5 679c58.333 -34 104.5 -80.167 138.5 -138.5s51 -121.833 51 -190.5s-17 -132.167 -51 -190.5s-80.167 -104.5 -138.5 -138.5s-121.833 -51 -190.5 -51h-340v760h340c68.667 0 132.167 -17 190.5 -51zM72 698v-695.998h308c62.667 0 120.667 15.667 174 47
s95.666 73.666 126.999 126.999s47 111.333 47 174s-15.667 120.667 -47 174s-73.666 95.666 -126.999 126.999s-111.333 47 -174 47h-308zM228 542.002l152 -0.00195312c34.667 0 66.667 -8.66699 96 -26s52.666 -40.666 69.999 -69.999s26 -61.333 26 -96
s-8.66699 -66.667 -26 -96s-40.666 -52.666 -69.999 -69.999s-61.333 -26 -96 -26h-152v384zM260 190l120 -0.00195312c28.667 0 55.334 7.16699 80.001 21.5s44.167 33.833 58.5 58.5s21.5 51.334 21.5 80.001s-7.16699 55.334 -21.5 80.001s-33.833 44.167 -58.5 58.5
s-51.334 21.5 -80.001 21.5h-120v-320z" />
    <glyph glyph-name="e" unicode="e" horiz-adv-x="670" 
d="M650 510h-390v-55h330v-210h-330v-55h390v-220h-610v760h610v-220zM72 698v-696h546v156h-390v119h330v146h-330v119h390v156h-546z" />
    <glyph glyph-name="f" unicode="f" horiz-adv-x="635" 
d="M630 510h-370v-65h310v-200h-310v-275h-220v760h590v-220zM72 698v-696h156v275h310v136h-310v129h370v156h-526z" />
    <glyph glyph-name="g" unicode="g" horiz-adv-x="794" 
d="M519 729c32 -7.33301 62.001 -17.6699 90.001 -31.0029c28.667 -14 55 -30.667 79 -50c24.667 -19.333 46.667 -42 66 -68l20 -25l-164 -125h163v-283l-5 -8c-38 -55.333 -86.333 -98.666 -145 -129.999c-62 -32.667 -128.333 -49 -199 -49
c-74.667 0 -143.334 17.5 -206.001 52.5s-112.5 82.333 -149.5 142s-55.5 124.834 -55.5 195.501s18.333 135.834 55 195.501s86.5 107 149.5 142s131.5 52.5 205.5 52.5c31.333 0 63.333 -3.66699 96 -11zM234.001 659.996c-58 -32 -103.999 -75.501 -137.999 -130.501
s-51 -114.833 -51 -179.5s17 -124.334 51 -179.001s80 -98.167 138 -130.5s121.333 -48.5 190 -48.5c65.333 0 126.666 15.333 183.999 46c55.333 28.667 99.666 68.334 132.999 119.001v241h-311v-136h155v-50c-20.667 -20.667 -45.167 -36.5 -73.5 -47.5
s-57.833 -16.5 -88.5 -16.5c-40 0 -77 9.16699 -111 27.5s-61 42.833 -81 73.5s-30 64.334 -30 101.001s10 70.5 30 101.5s47 55.5 81 73.5s71 27 111 27c36.667 0 70.834 -7.5 102.501 -22.5s58.167 -36.167 79.5 -63.5l124 95c-35.333 46 -80 82 -134 108
s-111.333 39 -172 39c-68 0 -131 -16 -189 -48zM492.502 191.995c22.333 8 42.5 19.3311 60.5 33.998v4h-155v200h195l-13 17c-18 23.333 -40.833 41.333 -68.5 54s-57.167 19 -88.5 19c-28 0 -52.667 -4.66699 -74 -14c-21.333 -7.33301 -41.666 -19.666 -60.999 -36.999
c-17.333 -16 -30.833 -34.167 -40.5 -54.5s-14.5 -41.833 -14.5 -64.5s4.83301 -44.167 14.5 -64.5s23.167 -38.5 40.5 -54.5c17.333 -15.333 37.666 -27.666 60.999 -36.999c24 -9.33301 48.667 -14 74 -14c24 0 47.167 4 69.5 12z" />
    <glyph glyph-name="h" unicode="h" horiz-adv-x="780" 
d="M740 -30h-220v270h-260v-270h-220v760h220v-270h260v270h220v-760zM552 698v-270h-324v270h-156v-696h156v270h324v-270h156v696h-156z" />
    <glyph glyph-name="i" unicode="i" horiz-adv-x="290" 
d="M250 -30h-220v760h220v-760zM62 698v-696h156v696h-156z" />
    <glyph glyph-name="j" unicode="j" horiz-adv-x="665" 
d="M5 300h220.001v-31c0 -24 9 -45 27 -63c18.667 -17.333 39.667 -26 63 -26c24.667 0 45.834 8.83301 63.501 26.5s26.5 38.834 26.5 63.501v460h220v-460c0 -56 -13.833 -107.833 -41.5 -155.5s-65.334 -85.334 -113.001 -113.001s-99.5 -41.5 -155.5 -41.5
c-42.667 0 -82.667 8.33301 -120 25c-36.667 15.333 -69.334 37 -98.001 65c-28 28 -50.333 60.667 -67 98c-16.667 39.333 -25 79.333 -25 120v32zM74.501 129.5c25 -42.333 58.834 -75.834 101.501 -100.501s89 -37 139 -37s96.333 12.5 139 37.5s76.5 58.833 101.5 101.5
s37.5 89 37.5 139v428h-156v-428c0 -33.333 -12 -62 -36 -86s-52.667 -36 -86 -36s-61.833 11.833 -85.5 35.5s-35.834 51.834 -36.501 84.501h-156c0 -50 12.5 -96.167 37.5 -138.5z" />
    <glyph glyph-name="k" unicode="k" horiz-adv-x="755" 
d="M260 500l204 230h295l-290 -326l327 -434h-276l-200 267l-60 -68v-199h-220v760h220v-230zM72 698v-696h156v180l94 105l214 -285h195l-303 404l260 292h-209l-251 -282v282h-156z" />
    <glyph glyph-name="l" unicode="l" horiz-adv-x="645" 
d="M260 190h380v-220h-600v760h220v-540zM72 698v-696h536v156h-380v540h-156z" />
    <glyph glyph-name="m" unicode="m" horiz-adv-x="880" 
d="M840 -30h-220v194l-83 -194h-204l-73 177v-177h-220v760h217l180 -435l186 435h217v-760zM644 698l-208 -485l-201 485h-163v-696h156v296l4 1l123 -297h161l132 309l4 -1v-308h156v696h-164z" />
    <glyph glyph-name="n" unicode="n" horiz-adv-x="820" 
d="M265 730l295 -398v398h220v-760h-225l-295 398v-398h-220v760h225zM592 698v-462l-343 462h-177v-696h156v462l343 -462h177v696h-156z" />
    <glyph glyph-name="o" unicode="o" horiz-adv-x="808" 
d="M599.5 687.5c59.667 -35 107 -82.333 142 -142s52.5 -124.834 52.5 -195.501s-17.5 -135.834 -52.5 -195.501s-82.333 -107 -142 -142s-124.834 -52.5 -195.501 -52.5s-135.834 17.5 -195.501 52.5s-107 82.333 -142 142s-52.5 124.834 -52.5 195.501
s17.5 135.834 52.5 195.501s82.333 107 142 142s124.834 52.5 195.501 52.5s135.834 -17.5 195.501 -52.5zM225 659.5c-54.667 -32.333 -98.167 -75.833 -130.5 -130.5s-48.5 -114.334 -48.5 -179.001s16.167 -124.5 48.5 -179.5s75.833 -98.5 130.5 -130.5
s114.334 -48 179.001 -48s124.334 16 179.001 48s98.167 75.5 130.5 130.5s48.5 114.833 48.5 179.5s-16.167 124.334 -48.5 179.001s-75.833 98.167 -130.5 130.5s-114.334 48.5 -179.001 48.5s-124.334 -16.167 -179.001 -48.5zM303 175
c-30.667 18 -55.167 42.5 -73.5 73.5s-27.5 64.833 -27.5 101.5s9.16699 70.334 27.5 101.001s42.833 55.167 73.5 73.5s64.334 27.5 101.001 27.5s70.334 -9.16699 101.001 -27.5s55.167 -42.833 73.5 -73.5s27.5 -64.334 27.5 -101.001s-9.16699 -70.5 -27.5 -101.5
s-42.833 -55.5 -73.5 -73.5s-64.334 -27 -101.001 -27s-70.334 9 -101.001 27zM489 203c26 15.333 46.667 36 62 62s23 54.333 23 85s-7.66699 59 -23 85s-36 46.667 -62 62s-54.333 23 -85 23s-59 -7.66699 -85 -23s-46.667 -36 -62 -62s-23 -54.333 -23 -85
s7.66699 -59 23 -85s36 -46.667 62 -62s54.333 -23 85 -23s59 7.66699 85 23z" />
    <glyph glyph-name="p" unicode="p" horiz-adv-x="734" 
d="M580 692c42.667 -25.333 76.667 -59.3311 102 -101.998s38 -89.334 38 -140.001s-12.667 -97.334 -38 -140.001s-59.333 -76.667 -102 -102s-89.334 -38 -140.001 -38h-180v-200h-220v760h400c50.667 0 97.334 -12.667 140.001 -38zM72 698.002v-696h156v200h212
c44.667 0 86 11.167 124 33.5s68.167 52.5 90.5 90.5s33.5 79.333 33.5 124s-11.167 86 -33.5 124s-52.5 68.167 -90.5 90.5s-79.333 33.5 -124 33.5h-368zM228 542.002h212c25.333 0 47 -9 65 -27s27 -39.667 27 -65s-9 -47 -27 -65s-39.667 -27 -65 -27h-212v184z
M260 390.002l180 -0.00195312c16.667 0 30.834 5.83301 42.501 17.5s17.5 25.834 17.5 42.501s-5.83301 30.834 -17.5 42.501s-25.834 17.5 -42.501 17.5h-180v-120z" />
    <glyph glyph-name="q" unicode="q" horiz-adv-x="808" 
d="M599.5 687.5c59.667 -35 106.999 -82.335 141.999 -142.002s52.5 -124.834 52.5 -195.501c0 -48.667 -8.33301 -94 -25 -136c-12 -33.333 -28.667 -64.666 -50 -93.999l64 -63l-156 -156l-84 85c-46 -17.333 -92.333 -26 -139 -26c-70.667 0 -135.834 17.5 -195.501 52.5
s-107 82.333 -142 142s-52.5 124.834 -52.5 195.501s17.5 135.834 52.5 195.501s82.333 107 142 142s124.834 52.5 195.501 52.5s135.834 -17.5 195.501 -52.5zM224.999 659.498c-54.667 -32.333 -98.165 -75.832 -130.498 -130.499s-48.5 -114.334 -48.5 -179.001
s16.167 -124.334 48.5 -179.001s75.833 -98.167 130.5 -130.5s114.334 -48.5 179.001 -48.5c51.333 0 99.666 10.333 144.999 31h1l77 -77l111 111l-62 61l2 1c26 32 46.667 67.333 62 106c14.667 42 22 83.667 22 125c0 64.667 -16.167 124.334 -48.5 179.001
s-75.833 98.167 -130.5 130.5s-114.334 48.5 -179.001 48.5s-124.334 -16.167 -179.001 -48.5zM303.001 175.499c-30.667 18.333 -55.167 42.833 -73.5 73.5s-27.5 64.334 -27.5 101.001s9.16699 70.334 27.5 101.001s42.833 55.167 73.5 73.5s64.334 27.5 101.001 27.5
s70.334 -9.16699 101.001 -27.5s55.167 -42.833 73.5 -73.5s27.5 -64.334 27.5 -101.001s-9.16699 -70.334 -27.5 -101.001s-42.833 -55.167 -73.5 -73.5s-64.334 -27.5 -101.001 -27.5s-70.334 9.16699 -101.001 27.5zM489.001 202.999c26 15.333 46.667 36 62 62
s23 54.333 23 85s-7.66699 59 -23 85s-36 46.667 -62 62s-54.333 23 -85 23s-59 -7.66699 -85 -23s-46.667 -36 -62 -62s-23 -54.333 -23 -85s7.66699 -59 23 -85s36 -46.667 62 -62s54.333 -23 85 -23s59 7.66699 85 23z" />
    <glyph glyph-name="r" unicode="r" horiz-adv-x="730" 
d="M580 692c42.667 -25.333 76.666 -59.334 101.999 -102.001s38 -89.334 38 -140.001c0 -57.333 -16 -109.666 -48 -156.999c-24 -35.333 -54.333 -63.666 -91 -84.999l179 -238h-275l-150 200h-75v-200h-220v760h400c50.667 0 97.334 -12.667 140.001 -38zM71.999 697.999
l-0.000976562 -696h156v200h123l150 -200h195l-164 218l3 1c44.667 18 81.334 48 110.001 90s43 88.333 43 139c0 44.667 -11.167 86 -33.5 124s-52.5 68.167 -90.5 90.5s-79.333 33.5 -124 33.5h-368zM227.998 541.999h212c25.333 0 47 -9 65 -27s27 -39.667 27 -65
s-9 -47 -27 -65s-39.667 -27 -65 -27h-212v184zM259.998 389.999l180 -0.00195312c16.667 0 30.834 5.83301 42.501 17.5s17.5 25.834 17.5 42.501s-5.83301 30.834 -17.5 42.501s-25.834 17.5 -42.501 17.5h-180v-120z" />
    <glyph glyph-name="s" unicode="s" horiz-adv-x="662" 
d="M439 725c34 -9.33301 65.3359 -23.002 94.0029 -41.002c28 -17.333 52 -38.666 72 -63.999c20 -27.333 33.333 -55.666 40 -84.999l7 -31l-184 -40l-29 -6l-9 28c-0.666992 2.66699 -3.33398 6.83398 -8.00098 12.501s-10.667 11.167 -18 16.5
c-22.667 16.667 -47.334 25 -74.001 25c-30.667 0 -56.334 -5.66699 -77.001 -17c-12.667 -7.33301 -19.667 -14 -21 -20c5.33301 -3.33301 14.666 -7.33301 27.999 -12c19.333 -6 52.333 -15.667 99 -29l7 -2c36 -9.33301 69.167 -19 99.5 -29s59.166 -23 86.499 -39
c36 -20.667 63.333 -44.334 82 -71.001c24 -32.667 36 -69.667 36 -111c0 -21.333 -3 -42 -9 -62c-6.66699 -20 -15.667 -38.333 -27 -55c-23.333 -34.667 -56 -63 -98 -85c-28 -15.333 -60 -27.166 -96 -35.499s-72.667 -12.5 -110 -12.5c-34.667 0 -70 4 -106 12
c-38.667 9.33301 -72 21.666 -100 36.999c-33.333 16.667 -61.333 37.334 -84 62.001c-24.667 27.333 -41.667 57.333 -51 90l-8 32l32 7l151 38l27 6l10 -23c4.66699 -6 14.667 -12.667 30 -20c28 -14 61 -21 99 -21c30.667 0 56.334 5.66699 77.001 17
c12.667 6 19.667 12.667 21 20c-5.33301 3.33301 -14.666 7.33301 -27.999 12c-19.333 6 -52.333 15.667 -99 29c-6.66699 1.33301 -11.667 2.66602 -15 3.99902c-36 9.33301 -67.667 18.5 -95 27.5s-53 20.833 -77 35.5c-69.333 42 -104 100.333 -104 175
c0 39.333 10 75 30 107c16.667 28 41.667 53 75 75c29.333 19.333 63 34 101 44c38.667 9.33301 76.667 14 114 14c38 0 74.333 -5 109 -15zM190.003 683.498c-44 -16.333 -79.6689 -40.168 -107.002 -71.501s-41 -68.666 -41 -111.999c0 -44 13 -79.667 39 -107
s56 -47.833 90 -61.5s75 -26.5 123 -38.5c3.33301 -1.33301 8.33301 -2.66602 15 -3.99902c46.667 -13.333 79.834 -23.166 99.501 -29.499s33.167 -12.5 40.5 -18.5s11 -13.667 11 -23s-3.33301 -18.166 -10 -26.499s-16 -15.833 -28 -22.5c-24 -14 -54.667 -21 -92 -21
c-42 0 -79.667 8 -113 24c-11.333 5.33301 -21.166 11.166 -29.499 17.499s-13.5 12.166 -15.5 17.499l-152 -38c9.33301 -36.667 30.166 -68.334 62.499 -95.001s70.666 -47 114.999 -61s88.5 -21 132.5 -21c34.667 0 68.5 3.83301 101.5 11.5s62.833 18.5 89.5 32.5
c38 20 67 45 87 75s30 63 30 99c0 34.667 -10 65.334 -30 92.001c-15.333 22 -39.333 43 -72 63c-25.333 14.667 -52 26.667 -80 36s-60.667 18.666 -98 27.999l-7 2c-46 12.667 -79.167 22.334 -99.5 29.001s-34.166 13 -41.499 19s-11 13.667 -11 23
s3.33301 18.166 10 26.499s16.334 15.833 29.001 22.5c24 14 54.667 21 92 21c34.667 0 66 -10.333 94 -31c10 -8 18.333 -16.167 25 -24.5s10.667 -15.5 12 -21.5l153 33c-8 34 -25.5 64.667 -52.5 92s-60.667 48.833 -101 64.5s-83.833 23.5 -130.5 23.5
c-49.333 0 -96 -8.16699 -140 -24.5z" />
    <glyph glyph-name="t" unicode="t" horiz-adv-x="700" 
d="M710 510h-250v-540h-220v540h-250v220h720v-220zM22 698v-156h250v-540h156v540h250v156h-656z" />
    <glyph glyph-name="u" unicode="u" horiz-adv-x="761" 
d="M731 310c0 -48.667 -9.33301 -94.001 -28 -136.001c-16 -40 -41 -77 -75 -111c-31.333 -32.667 -68.333 -58 -111 -76s-88 -27 -136 -27s-93.333 9 -136 27s-79.667 43.333 -111 76c-33.333 32 -58.333 69 -75 111c-18.667 42 -28 87.333 -28 136v420h220v-420
c0 -36 12.667 -66.667 38 -92s56 -38 92 -38s66.667 12.667 92 38c25.333 26.667 38 57.334 38 92.001v420h220v-420zM543 697.999l-0.000976562 -388.001c0 -21.333 -4.16699 -42 -12.5 -62s-20.166 -37.667 -35.499 -53s-32.833 -27 -52.5 -35s-40.167 -12 -61.5 -12
s-42 4 -62 12s-37.667 19.667 -53 35s-27 33 -35 53s-12 40.667 -12 62v388h-156v-388c0 -44.667 8.33301 -86 25 -124c16 -38 38.667 -71.667 68 -101c30.667 -29.333 64.334 -52 101.001 -68c39.333 -16.667 80.666 -25 123.999 -25c44 0 85 8.33301 123 25
c38 16 71.667 38.667 101 68c30 28.667 53 62.334 69 101.001c16.667 40.667 25 82 25 124v388h-156z" />
    <glyph glyph-name="v" unicode="v" horiz-adv-x="793" 
d="M503 -30h-213l-315 760h238l183 -443l184 443h238zM601 698l-205 -495l-204 495h-169l288 -696h171l288 696h-169z" />
    <glyph glyph-name="w" unicode="w" horiz-adv-x="1048" 
d="M841 -30h-212l-104 347l-104 -347h-212l-229 760h230l105 -348l104 348h212l104 -348l105 348h229zM863 698l-128 -427l-128 427h-164l-128 -427l-128 427h-164l209 -696h165l128 427l128 -427h165l208 696h-163z" />
    <glyph glyph-name="x" unicode="x" horiz-adv-x="788" 
d="M537 350l315 -380h-286l-172 207l-172 -207h-285l314 380l-314 380h285l172 -208l172 208h286zM581 698l-187 -226l-187 226h-202l288 -348l-288 -348h202l187 225l187 -225h203l-288 348l288 348h-203z" />
    <glyph glyph-name="y" unicode="y" horiz-adv-x="773" 
d="M497 247v-277h-220v277l-322 483h264l168 -252l168 252h265zM572 698l-185 -278l-185 278h-188l295 -442v-254h156v254l295 442h-188z" />
    <glyph glyph-name="z" unicode="z" horiz-adv-x="680" 
d="M680 528l-349 -338h349v-220h-681l1 203l341 337h-321v220h660v-202zM52 698v-156h367l-387 -383v-157h616v156h-396l396 383v157h-596z" />
    <glyph glyph-name="Euro" unicode="&#x20ac;" horiz-adv-x="825" 
d="M661 699c56 -27.333 103.667 -65.666 143 -114.999l20 -25l-167 -128l-19 24c-18.667 23.333 -41.834 41.666 -69.501 54.999s-57.167 20 -88.5 20c-28 0 -54 -5 -78 -15h98v-330h-98c24 -10 50 -15 78 -15c31.333 0 60.833 6.66699 88.5 20s50.834 31.666 69.501 54.999
l19 24l167 -128l-20 -25c-39.333 -49.333 -87 -87.666 -143 -114.999c-56.667 -27.333 -117 -41 -181 -41c-40.667 0 -80.5 5.83301 -119.5 17.5s-75.167 28.5 -108.5 50.5c-61.333 40.667 -107.666 93 -138.999 157h-113v330h113c31.333 64 77.666 116.333 138.999 157
c33.333 22 69.5 38.833 108.5 50.5s78.833 17.5 119.5 17.5c64 0 124.333 -13.667 181 -41zM269 645c-30 -20 -56.5 -43.667 -79.5 -71s-41.167 -57.333 -54.5 -90l-1 -1h-102v-106h76v-2l-1 -25l1 -25v-2h-76v-106h102l1 -1c13.333 -32.667 31.5 -62.667 54.5 -90
s49.5 -51 79.5 -71c64.667 -42 135 -63 211 -63c58.667 0 114.334 12.667 167.001 38s96.667 60.666 132 105.999l-116 89c-21.333 -27.333 -48.166 -48.666 -80.499 -63.999s-66.5 -23 -102.5 -23c-33.333 0 -65.166 6.66699 -95.499 20s-56.166 32 -77.499 56l-3 3h164
v106h-213v2c-1.33301 10.667 -2 19 -2 25s0.666992 14.333 2 25v2h213v106h-164l3 3c21.333 24 47.166 42.667 77.499 56s62.166 20 95.499 20c36 0 70.167 -7.66699 102.5 -23s59.166 -36.666 80.499 -63.999l116 89c-35.333 45.333 -79.333 80.666 -132 105.999
s-108.334 38 -167.001 38c-76 0 -146.333 -21 -211 -63z" />
    </font>
</defs>
</svg>
